<mxfile host="drawio-plugin" modified="2023-08-08T14:38:05.380Z" agent="5.0 (Windows NT 6.2; Win64; x64) AppleWebKit/537.36 (KHTML, like Gecko) Chrome/87.0.4280.141 Safari/537.36" etag="LzD5nzKu8FQ1mQ8Eio4l" version="13.7.9" type="embed"><diagram id="lMCECdiOliHJ0kIxP1SO" name="Page-1"><mxGraphModel dx="1226" dy="-18179" grid="0" gridSize="10" guides="1" tooltips="1" connect="1" arrows="1" fold="1" page="0" pageScale="1" pageWidth="850" pageHeight="1100" background="#ffffff" math="0" shadow="0"><root><mxCell id="0"/><mxCell id="1" parent="0"/><mxCell id="261" style="edgeStyle=none;rounded=0;sketch=1;orthogonalLoop=1;jettySize=auto;html=1;fontColor=#050505;entryX=0;entryY=0;entryDx=0;entryDy=0;strokeColor=#000000;" parent="1" source="263" target="289" edge="1"><mxGeometry relative="1" as="geometry"><mxPoint x="257.8829906421163" y="18898.882990642116" as="targetPoint"/></mxGeometry></mxCell><mxCell id="262" style="edgeStyle=none;rounded=0;sketch=1;orthogonalLoop=1;jettySize=auto;html=1;entryX=1;entryY=0;entryDx=0;entryDy=0;fontColor=#050505;strokeColor=#000000;" parent="1" source="263" target="268" edge="1"><mxGeometry relative="1" as="geometry"/></mxCell><mxCell id="915" style="edgeStyle=orthogonalEdgeStyle;rounded=0;orthogonalLoop=1;jettySize=auto;html=1;entryX=0.5;entryY=0;entryDx=0;entryDy=0;strokeColor=#006EAF;strokeWidth=2;sketch=1;curved=1;fillColor=#1ba1e2;" edge="1" parent="1" source="263" target="268"><mxGeometry relative="1" as="geometry"/></mxCell><mxCell id="263" value="&lt;font style=&quot;font-size: 17px&quot;&gt;99&lt;/font&gt;" style="ellipse;whiteSpace=wrap;html=1;aspect=fixed;fillColor=#dae8fc;strokeColor=#6c8ebf;sketch=1;fontStyle=1;fontColor=#000000;" parent="1" vertex="1"><mxGeometry x="177" y="18814" width="47" height="47" as="geometry"/></mxCell><mxCell id="264" style="edgeStyle=none;rounded=0;sketch=1;orthogonalLoop=1;jettySize=auto;html=1;entryX=1;entryY=0;entryDx=0;entryDy=0;strokeColor=#050505;fontColor=#050505;exitX=0.5;exitY=1;exitDx=0;exitDy=0;" parent="1" source="289" target="271" edge="1"><mxGeometry relative="1" as="geometry"><mxPoint x="196.61700935788383" y="18978.882990642116" as="targetPoint"/><mxPoint x="268.88847915050405" y="18938.32018478795" as="sourcePoint"/></mxGeometry></mxCell><mxCell id="265" style="edgeStyle=none;rounded=0;sketch=1;orthogonalLoop=1;jettySize=auto;html=1;entryX=0;entryY=0;entryDx=0;entryDy=0;strokeColor=#050505;fontColor=#050505;exitX=1;exitY=1;exitDx=0;exitDy=0;" parent="1" source="289" target="274" edge="1"><mxGeometry relative="1" as="geometry"><mxPoint x="289.28615837370535" y="18933.765254461636" as="sourcePoint"/></mxGeometry></mxCell><mxCell id="266" style="edgeStyle=none;rounded=0;sketch=1;orthogonalLoop=1;jettySize=auto;html=1;entryX=1;entryY=0;entryDx=0;entryDy=0;strokeColor=#050505;fontColor=#050505;" parent="1" source="268" target="277" edge="1"><mxGeometry relative="1" as="geometry"/></mxCell><mxCell id="267" style="edgeStyle=none;rounded=0;sketch=1;orthogonalLoop=1;jettySize=auto;html=1;entryX=0;entryY=0;entryDx=0;entryDy=0;strokeColor=#050505;fontColor=#050505;" parent="1" source="268" target="280" edge="1"><mxGeometry relative="1" as="geometry"/></mxCell><mxCell id="268" value="&lt;font style=&quot;font-size: 17px&quot;&gt;72&lt;/font&gt;" style="ellipse;whiteSpace=wrap;html=1;aspect=fixed;fillColor=#dae8fc;strokeColor=#6c8ebf;sketch=1;fontStyle=1;fontColor=#050505;" parent="1" vertex="1"><mxGeometry x="99.5" y="18892" width="47" height="47" as="geometry"/></mxCell><mxCell id="271" value="&lt;span style=&quot;font-size: 17px&quot;&gt;27&lt;/span&gt;" style="ellipse;whiteSpace=wrap;html=1;aspect=fixed;fillColor=#dae8fc;strokeColor=#6c8ebf;sketch=1;fontColor=#000000;fontStyle=1" parent="1" vertex="1"><mxGeometry x="219" y="18970" width="47" height="47" as="geometry"/></mxCell><mxCell id="274" value="&lt;font style=&quot;font-size: 17px&quot;&gt;18&lt;/font&gt;" style="ellipse;whiteSpace=wrap;html=1;aspect=fixed;fillColor=#dae8fc;strokeColor=#6c8ebf;sketch=1;fontStyle=1;fontColor=#050505;" parent="1" vertex="1"><mxGeometry x="319.5" y="18972" width="47" height="47" as="geometry"/></mxCell><mxCell id="277" value="&lt;font style=&quot;font-size: 17px&quot;&gt;58&lt;/font&gt;" style="ellipse;whiteSpace=wrap;html=1;aspect=fixed;fillColor=#dae8fc;strokeColor=#6c8ebf;sketch=1;fontStyle=1;fontColor=#050505;" parent="1" vertex="1"><mxGeometry x="26" y="18970" width="47" height="47" as="geometry"/></mxCell><mxCell id="280" value="&lt;font style=&quot;font-size: 17px&quot;&gt;55&lt;/font&gt;" style="ellipse;whiteSpace=wrap;html=1;aspect=fixed;fillColor=#dae8fc;strokeColor=#6c8ebf;sketch=1;fontStyle=1;fontColor=#000000;" parent="1" vertex="1"><mxGeometry x="124.5" y="18970" width="47" height="47" as="geometry"/></mxCell><mxCell id="289" value="&lt;font style=&quot;font-size: 17px&quot;&gt;61&lt;/font&gt;" style="ellipse;whiteSpace=wrap;html=1;aspect=fixed;fillColor=#dae8fc;strokeColor=#6c8ebf;sketch=1;fontColor=#000000;fontStyle=1" parent="1" vertex="1"><mxGeometry x="249" y="18892" width="47" height="47" as="geometry"/></mxCell><mxCell id="292" value="&lt;font color=&quot;#000000&quot; style=&quot;font-size: 14px&quot;&gt;greater than&lt;/font&gt;" style="text;html=1;align=center;verticalAlign=middle;resizable=0;points=[];autosize=1;rotation=-25;" parent="1" vertex="1"><mxGeometry x="83.5" y="18825" width="88" height="19" as="geometry"/></mxCell><mxCell id="916" style="edgeStyle=orthogonalEdgeStyle;rounded=0;orthogonalLoop=1;jettySize=auto;html=1;entryX=0.5;entryY=0;entryDx=0;entryDy=0;strokeColor=#006EAF;strokeWidth=2;sketch=1;curved=1;fillColor=#1ba1e2;" edge="1" parent="1"><mxGeometry relative="1" as="geometry"><mxPoint x="94.5" y="18911.5" as="sourcePoint"/><mxPoint x="40.5" y="18966" as="targetPoint"/></mxGeometry></mxCell><mxCell id="917" value="&lt;font color=&quot;#000000&quot; style=&quot;font-size: 14px&quot;&gt;greater than&lt;/font&gt;" style="text;html=1;align=center;verticalAlign=middle;resizable=0;points=[];autosize=1;rotation=-30;" vertex="1" parent="1"><mxGeometry x="-4.5" y="18906" width="88" height="19" as="geometry"/></mxCell><mxCell id="918" style="edgeStyle=orthogonalEdgeStyle;rounded=0;orthogonalLoop=1;jettySize=auto;html=1;entryX=1;entryY=0;entryDx=0;entryDy=0;strokeColor=#006EAF;strokeWidth=2;sketch=1;curved=1;exitX=1;exitY=0.5;exitDx=0;exitDy=0;fillColor=#1ba1e2;" edge="1" parent="1" source="263" target="289"><mxGeometry relative="1" as="geometry"><mxPoint x="187" y="18847.5" as="sourcePoint"/><mxPoint x="133" y="18902" as="targetPoint"/><Array as="points"><mxPoint x="289" y="18838"/></Array></mxGeometry></mxCell><mxCell id="919" value="&lt;font color=&quot;#000000&quot; style=&quot;font-size: 14px&quot;&gt;greater than&lt;/font&gt;" style="text;html=1;align=center;verticalAlign=middle;resizable=0;points=[];autosize=1;rotation=30;" vertex="1" parent="1"><mxGeometry x="238" y="18831" width="88" height="19" as="geometry"/></mxCell><mxCell id="921" style="edgeStyle=orthogonalEdgeStyle;rounded=0;orthogonalLoop=1;jettySize=auto;html=1;entryX=1;entryY=0;entryDx=0;entryDy=0;strokeColor=#006EAF;strokeWidth=2;sketch=1;curved=1;exitX=1;exitY=0.5;exitDx=0;exitDy=0;fillColor=#1ba1e2;" edge="1" parent="1"><mxGeometry relative="1" as="geometry"><mxPoint x="301" y="18914.5" as="sourcePoint"/><mxPoint x="366.1170093578837" y="18975.882990642116" as="targetPoint"/><Array as="points"><mxPoint x="366" y="18915"/></Array></mxGeometry></mxCell><mxCell id="922" value="&lt;font color=&quot;#000000&quot; style=&quot;font-size: 14px&quot;&gt;greater than&lt;/font&gt;" style="text;html=1;align=center;verticalAlign=middle;resizable=0;points=[];autosize=1;rotation=30;" vertex="1" parent="1"><mxGeometry x="319.5" y="18910" width="88" height="19" as="geometry"/></mxCell><mxCell id="923" style="edgeStyle=none;rounded=0;sketch=1;orthogonalLoop=1;jettySize=auto;html=1;fontColor=#050505;entryX=0;entryY=0;entryDx=0;entryDy=0;strokeColor=#000000;" edge="1" source="926" target="936" parent="1"><mxGeometry relative="1" as="geometry"><mxPoint x="271.3829906421163" y="19168.882990642116" as="targetPoint"/></mxGeometry></mxCell><mxCell id="924" style="edgeStyle=none;rounded=0;sketch=1;orthogonalLoop=1;jettySize=auto;html=1;entryX=1;entryY=0;entryDx=0;entryDy=0;fontColor=#050505;strokeColor=#000000;" edge="1" source="926" target="931" parent="1"><mxGeometry relative="1" as="geometry"/></mxCell><mxCell id="926" value="&lt;font style=&quot;font-size: 17px&quot;&gt;99&lt;/font&gt;" style="ellipse;whiteSpace=wrap;html=1;aspect=fixed;fillColor=#e1d5e7;strokeColor=#9673a6;sketch=1;fontStyle=1;fontColor=#000000;" vertex="1" parent="1"><mxGeometry x="190.5" y="19084" width="47" height="47" as="geometry"/></mxCell><mxCell id="927" style="edgeStyle=none;rounded=0;sketch=1;orthogonalLoop=1;jettySize=auto;html=1;entryX=1;entryY=0;entryDx=0;entryDy=0;strokeColor=#050505;fontColor=#050505;exitX=0.5;exitY=1;exitDx=0;exitDy=0;" edge="1" source="936" target="932" parent="1"><mxGeometry relative="1" as="geometry"><mxPoint x="210.11700935788383" y="19248.882990642116" as="targetPoint"/><mxPoint x="282.38847915050405" y="19208.32018478795" as="sourcePoint"/></mxGeometry></mxCell><mxCell id="928" style="edgeStyle=none;rounded=0;sketch=1;orthogonalLoop=1;jettySize=auto;html=1;entryX=0;entryY=0;entryDx=0;entryDy=0;strokeColor=#050505;fontColor=#050505;exitX=1;exitY=1;exitDx=0;exitDy=0;" edge="1" source="936" target="933" parent="1"><mxGeometry relative="1" as="geometry"><mxPoint x="302.78615837370535" y="19203.765254461636" as="sourcePoint"/></mxGeometry></mxCell><mxCell id="929" style="edgeStyle=none;rounded=0;sketch=1;orthogonalLoop=1;jettySize=auto;html=1;entryX=1;entryY=0;entryDx=0;entryDy=0;strokeColor=#050505;fontColor=#050505;" edge="1" source="931" target="934" parent="1"><mxGeometry relative="1" as="geometry"/></mxCell><mxCell id="930" style="edgeStyle=none;rounded=0;sketch=1;orthogonalLoop=1;jettySize=auto;html=1;entryX=0;entryY=0;entryDx=0;entryDy=0;strokeColor=#050505;fontColor=#050505;" edge="1" source="931" target="935" parent="1"><mxGeometry relative="1" as="geometry"/></mxCell><mxCell id="931" value="&lt;font style=&quot;font-size: 17px&quot;&gt;72&lt;/font&gt;" style="ellipse;whiteSpace=wrap;html=1;aspect=fixed;fillColor=#dae8fc;strokeColor=#6c8ebf;sketch=1;fontStyle=1;fontColor=#050505;" vertex="1" parent="1"><mxGeometry x="113" y="19162" width="47" height="47" as="geometry"/></mxCell><mxCell id="932" value="&lt;span style=&quot;font-size: 17px&quot;&gt;27&lt;/span&gt;" style="ellipse;whiteSpace=wrap;html=1;aspect=fixed;fillColor=#dae8fc;strokeColor=#6c8ebf;sketch=1;fontColor=#000000;fontStyle=1" vertex="1" parent="1"><mxGeometry x="232.5" y="19240" width="47" height="47" as="geometry"/></mxCell><mxCell id="933" value="&lt;font style=&quot;font-size: 17px&quot;&gt;18&lt;/font&gt;" style="ellipse;whiteSpace=wrap;html=1;aspect=fixed;fillColor=#dae8fc;strokeColor=#6c8ebf;sketch=1;fontStyle=1;fontColor=#050505;" vertex="1" parent="1"><mxGeometry x="333" y="19242" width="47" height="47" as="geometry"/></mxCell><mxCell id="934" value="&lt;font style=&quot;font-size: 17px&quot;&gt;58&lt;/font&gt;" style="ellipse;whiteSpace=wrap;html=1;aspect=fixed;fillColor=#dae8fc;strokeColor=#6c8ebf;sketch=1;fontStyle=1;fontColor=#050505;" vertex="1" parent="1"><mxGeometry x="39.5" y="19240" width="47" height="47" as="geometry"/></mxCell><mxCell id="935" value="&lt;font style=&quot;font-size: 17px&quot;&gt;55&lt;/font&gt;" style="ellipse;whiteSpace=wrap;html=1;aspect=fixed;fillColor=#dae8fc;strokeColor=#6c8ebf;sketch=1;fontStyle=1;fontColor=#000000;" vertex="1" parent="1"><mxGeometry x="138" y="19240" width="47" height="47" as="geometry"/></mxCell><mxCell id="936" value="&lt;font style=&quot;font-size: 17px&quot;&gt;61&lt;/font&gt;" style="ellipse;whiteSpace=wrap;html=1;aspect=fixed;fillColor=#dae8fc;strokeColor=#6c8ebf;sketch=1;fontColor=#000000;fontStyle=1" vertex="1" parent="1"><mxGeometry x="262.5" y="19162" width="47" height="47" as="geometry"/></mxCell><mxCell id="944" value="&lt;font color=&quot;#000000&quot; style=&quot;font-size: 14px&quot;&gt;maximum value&lt;/font&gt;" style="text;html=1;align=center;verticalAlign=middle;resizable=0;points=[];autosize=1;rotation=0;" vertex="1" parent="1"><mxGeometry x="163" y="19062" width="106" height="19" as="geometry"/></mxCell><mxCell id="945" style="edgeStyle=none;rounded=0;sketch=1;orthogonalLoop=1;jettySize=auto;html=1;fontColor=#050505;entryX=0;entryY=0;entryDx=0;entryDy=0;strokeColor=#000000;" edge="1" source="947" target="957" parent="1"><mxGeometry relative="1" as="geometry"><mxPoint x="262.1329906421163" y="19464.882990642116" as="targetPoint"/></mxGeometry></mxCell><mxCell id="946" style="edgeStyle=none;rounded=0;sketch=1;orthogonalLoop=1;jettySize=auto;html=1;entryX=1;entryY=0;entryDx=0;entryDy=0;fontColor=#050505;strokeColor=#000000;" edge="1" source="947" target="952" parent="1"><mxGeometry relative="1" as="geometry"/></mxCell><mxCell id="947" value="&lt;font style=&quot;font-size: 17px&quot;&gt;18&lt;/font&gt;" style="ellipse;whiteSpace=wrap;html=1;aspect=fixed;fillColor=#e1d5e7;strokeColor=#9673a6;sketch=1;fontStyle=1;fontColor=#000000;" vertex="1" parent="1"><mxGeometry x="181.25" y="19380" width="47" height="47" as="geometry"/></mxCell><mxCell id="948" style="edgeStyle=none;rounded=0;sketch=1;orthogonalLoop=1;jettySize=auto;html=1;entryX=1;entryY=0;entryDx=0;entryDy=0;strokeColor=#050505;fontColor=#050505;exitX=0.5;exitY=1;exitDx=0;exitDy=0;" edge="1" source="957" target="953" parent="1"><mxGeometry relative="1" as="geometry"><mxPoint x="200.86700935788383" y="19544.882990642116" as="targetPoint"/><mxPoint x="273.13847915050405" y="19504.32018478795" as="sourcePoint"/></mxGeometry></mxCell><mxCell id="949" style="edgeStyle=none;rounded=0;sketch=1;orthogonalLoop=1;jettySize=auto;html=1;entryX=0;entryY=0;entryDx=0;entryDy=0;strokeColor=#050505;fontColor=#050505;exitX=1;exitY=1;exitDx=0;exitDy=0;" edge="1" source="957" target="954" parent="1"><mxGeometry relative="1" as="geometry"><mxPoint x="293.53615837370535" y="19499.765254461636" as="sourcePoint"/></mxGeometry></mxCell><mxCell id="950" style="edgeStyle=none;rounded=0;sketch=1;orthogonalLoop=1;jettySize=auto;html=1;entryX=1;entryY=0;entryDx=0;entryDy=0;strokeColor=#050505;fontColor=#050505;" edge="1" source="952" target="955" parent="1"><mxGeometry relative="1" as="geometry"/></mxCell><mxCell id="951" style="edgeStyle=none;rounded=0;sketch=1;orthogonalLoop=1;jettySize=auto;html=1;entryX=0;entryY=0;entryDx=0;entryDy=0;strokeColor=#050505;fontColor=#050505;" edge="1" source="952" target="956" parent="1"><mxGeometry relative="1" as="geometry"/></mxCell><mxCell id="952" value="&lt;font style=&quot;font-size: 17px&quot;&gt;27&lt;/font&gt;" style="ellipse;whiteSpace=wrap;html=1;aspect=fixed;fillColor=#dae8fc;strokeColor=#6c8ebf;sketch=1;fontStyle=1;fontColor=#050505;" vertex="1" parent="1"><mxGeometry x="103.75" y="19458" width="47" height="47" as="geometry"/></mxCell><mxCell id="953" value="&lt;span style=&quot;font-size: 17px&quot;&gt;72&lt;/span&gt;" style="ellipse;whiteSpace=wrap;html=1;aspect=fixed;fillColor=#dae8fc;strokeColor=#6c8ebf;sketch=1;fontColor=#000000;fontStyle=1" vertex="1" parent="1"><mxGeometry x="223.25" y="19536" width="47" height="47" as="geometry"/></mxCell><mxCell id="954" value="&lt;font style=&quot;font-size: 17px&quot;&gt;99&lt;/font&gt;" style="ellipse;whiteSpace=wrap;html=1;aspect=fixed;fillColor=#dae8fc;strokeColor=#6c8ebf;sketch=1;fontStyle=1;fontColor=#050505;" vertex="1" parent="1"><mxGeometry x="323.75" y="19538" width="47" height="47" as="geometry"/></mxCell><mxCell id="955" value="&lt;font style=&quot;font-size: 17px&quot;&gt;58&lt;/font&gt;" style="ellipse;whiteSpace=wrap;html=1;aspect=fixed;fillColor=#dae8fc;strokeColor=#6c8ebf;sketch=1;fontStyle=1;fontColor=#050505;" vertex="1" parent="1"><mxGeometry x="30.25" y="19536" width="47" height="47" as="geometry"/></mxCell><mxCell id="956" value="&lt;font style=&quot;font-size: 17px&quot;&gt;55&lt;/font&gt;" style="ellipse;whiteSpace=wrap;html=1;aspect=fixed;fillColor=#dae8fc;strokeColor=#6c8ebf;sketch=1;fontStyle=1;fontColor=#000000;" vertex="1" parent="1"><mxGeometry x="128.75" y="19536" width="47" height="47" as="geometry"/></mxCell><mxCell id="957" value="&lt;font style=&quot;font-size: 17px&quot;&gt;61&lt;/font&gt;" style="ellipse;whiteSpace=wrap;html=1;aspect=fixed;fillColor=#dae8fc;strokeColor=#6c8ebf;sketch=1;fontColor=#000000;fontStyle=1" vertex="1" parent="1"><mxGeometry x="253.25" y="19458" width="47" height="47" as="geometry"/></mxCell><mxCell id="958" value="&lt;font color=&quot;#000000&quot; style=&quot;font-size: 14px&quot;&gt;maximum value&lt;/font&gt;" style="text;html=1;align=center;verticalAlign=middle;resizable=0;points=[];autosize=1;rotation=0;" vertex="1" parent="1"><mxGeometry x="153.75" y="19358" width="106" height="19" as="geometry"/></mxCell><mxCell id="959" style="edgeStyle=none;rounded=0;sketch=1;orthogonalLoop=1;jettySize=auto;html=1;fontColor=#050505;entryX=0;entryY=0;entryDx=0;entryDy=0;strokeColor=#000000;" edge="1" source="961" target="971" parent="1"><mxGeometry relative="1" as="geometry"><mxPoint x="262.1329906421163" y="19752.882990642116" as="targetPoint"/></mxGeometry></mxCell><mxCell id="960" style="edgeStyle=none;rounded=0;sketch=1;orthogonalLoop=1;jettySize=auto;html=1;entryX=1;entryY=0;entryDx=0;entryDy=0;fontColor=#050505;strokeColor=#000000;" edge="1" source="961" target="966" parent="1"><mxGeometry relative="1" as="geometry"/></mxCell><mxCell id="961" value="&lt;font style=&quot;font-size: 17px&quot;&gt;99&lt;/font&gt;" style="ellipse;whiteSpace=wrap;html=1;aspect=fixed;fillColor=#e1d5e7;strokeColor=#9673a6;sketch=1;fontStyle=1;fontColor=#000000;" vertex="1" parent="1"><mxGeometry x="181.25" y="19668" width="47" height="47" as="geometry"/></mxCell><mxCell id="962" style="edgeStyle=none;rounded=0;sketch=1;orthogonalLoop=1;jettySize=auto;html=1;entryX=1;entryY=0;entryDx=0;entryDy=0;strokeColor=#050505;fontColor=#050505;exitX=0.5;exitY=1;exitDx=0;exitDy=0;" edge="1" source="971" target="967" parent="1"><mxGeometry relative="1" as="geometry"><mxPoint x="200.86700935788383" y="19832.882990642116" as="targetPoint"/><mxPoint x="273.13847915050405" y="19792.32018478795" as="sourcePoint"/></mxGeometry></mxCell><mxCell id="963" style="edgeStyle=none;rounded=0;sketch=1;orthogonalLoop=1;jettySize=auto;html=1;entryX=0;entryY=0;entryDx=0;entryDy=0;strokeColor=#050505;fontColor=#050505;exitX=1;exitY=1;exitDx=0;exitDy=0;" edge="1" source="971" target="968" parent="1"><mxGeometry relative="1" as="geometry"><mxPoint x="293.53615837370535" y="19787.765254461636" as="sourcePoint"/></mxGeometry></mxCell><mxCell id="964" style="edgeStyle=none;rounded=0;sketch=1;orthogonalLoop=1;jettySize=auto;html=1;entryX=1;entryY=0;entryDx=0;entryDy=0;strokeColor=#050505;fontColor=#050505;" edge="1" source="966" target="969" parent="1"><mxGeometry relative="1" as="geometry"/></mxCell><mxCell id="965" style="edgeStyle=none;rounded=0;sketch=1;orthogonalLoop=1;jettySize=auto;html=1;entryX=0;entryY=0;entryDx=0;entryDy=0;strokeColor=#050505;fontColor=#050505;" edge="1" source="966" target="970" parent="1"><mxGeometry relative="1" as="geometry"/></mxCell><mxCell id="966" value="&lt;font style=&quot;font-size: 17px&quot;&gt;72&lt;/font&gt;" style="ellipse;whiteSpace=wrap;html=1;aspect=fixed;fillColor=#dae8fc;strokeColor=#6c8ebf;sketch=1;fontStyle=1;fontColor=#050505;" vertex="1" parent="1"><mxGeometry x="103.75" y="19746" width="47" height="47" as="geometry"/></mxCell><mxCell id="967" value="&lt;span style=&quot;font-size: 17px&quot;&gt;27&lt;/span&gt;" style="ellipse;whiteSpace=wrap;html=1;aspect=fixed;fillColor=#dae8fc;strokeColor=#6c8ebf;sketch=1;fontColor=#000000;fontStyle=1" vertex="1" parent="1"><mxGeometry x="223.25" y="19824" width="47" height="47" as="geometry"/></mxCell><mxCell id="968" value="&lt;font style=&quot;font-size: 17px&quot;&gt;18&lt;/font&gt;" style="ellipse;whiteSpace=wrap;html=1;aspect=fixed;fillColor=#dae8fc;strokeColor=#6c8ebf;sketch=1;fontStyle=1;fontColor=#050505;" vertex="1" parent="1"><mxGeometry x="323.75" y="19826" width="47" height="47" as="geometry"/></mxCell><mxCell id="969" value="&lt;font style=&quot;font-size: 17px&quot;&gt;58&lt;/font&gt;" style="ellipse;whiteSpace=wrap;html=1;aspect=fixed;fillColor=#dae8fc;strokeColor=#6c8ebf;sketch=1;fontStyle=1;fontColor=#050505;" vertex="1" parent="1"><mxGeometry x="30.25" y="19824" width="47" height="47" as="geometry"/></mxCell><mxCell id="970" value="&lt;font style=&quot;font-size: 17px&quot;&gt;55&lt;/font&gt;" style="ellipse;whiteSpace=wrap;html=1;aspect=fixed;fillColor=#dae8fc;strokeColor=#6c8ebf;sketch=1;fontStyle=1;fontColor=#000000;" vertex="1" parent="1"><mxGeometry x="128.75" y="19824" width="47" height="47" as="geometry"/></mxCell><mxCell id="971" value="&lt;font style=&quot;font-size: 17px&quot;&gt;61&lt;/font&gt;" style="ellipse;whiteSpace=wrap;html=1;aspect=fixed;fillColor=#dae8fc;strokeColor=#6c8ebf;sketch=1;fontColor=#000000;fontStyle=1" vertex="1" parent="1"><mxGeometry x="253.25" y="19746" width="47" height="47" as="geometry"/></mxCell><mxCell id="972" value="&lt;font color=&quot;#000000&quot; style=&quot;font-size: 14px&quot;&gt;maximum value&lt;/font&gt;" style="text;html=1;align=center;verticalAlign=middle;resizable=0;points=[];autosize=1;rotation=0;" vertex="1" parent="1"><mxGeometry x="153.75" y="19646" width="106" height="19" as="geometry"/></mxCell><mxCell id="973" style="edgeStyle=none;rounded=0;sketch=1;orthogonalLoop=1;jettySize=auto;html=1;fontColor=#050505;entryX=0;entryY=0;entryDx=0;entryDy=0;strokeColor=#000000;" edge="1" source="975" target="985" parent="1"><mxGeometry relative="1" as="geometry"><mxPoint x="667.8829906421163" y="19752.882990642116" as="targetPoint"/></mxGeometry></mxCell><mxCell id="974" style="edgeStyle=none;rounded=0;sketch=1;orthogonalLoop=1;jettySize=auto;html=1;entryX=1;entryY=0;entryDx=0;entryDy=0;fontColor=#050505;strokeColor=#000000;" edge="1" source="975" target="980" parent="1"><mxGeometry relative="1" as="geometry"/></mxCell><mxCell id="975" value="&lt;font style=&quot;font-size: 17px&quot;&gt;99&lt;/font&gt;" style="ellipse;whiteSpace=wrap;html=1;aspect=fixed;fillColor=#e1d5e7;strokeColor=#9673a6;sketch=1;fontStyle=1;fontColor=#000000;" vertex="1" parent="1"><mxGeometry x="587" y="19668" width="47" height="47" as="geometry"/></mxCell><mxCell id="976" style="edgeStyle=none;rounded=0;sketch=1;orthogonalLoop=1;jettySize=auto;html=1;entryX=1;entryY=0;entryDx=0;entryDy=0;strokeColor=#050505;fontColor=#050505;exitX=0.5;exitY=1;exitDx=0;exitDy=0;" edge="1" source="985" target="981" parent="1"><mxGeometry relative="1" as="geometry"><mxPoint x="606.6170093578838" y="19832.882990642116" as="targetPoint"/><mxPoint x="678.888479150504" y="19792.32018478795" as="sourcePoint"/></mxGeometry></mxCell><mxCell id="977" style="edgeStyle=none;rounded=0;sketch=1;orthogonalLoop=1;jettySize=auto;html=1;entryX=0;entryY=0;entryDx=0;entryDy=0;strokeColor=#050505;fontColor=#050505;exitX=1;exitY=1;exitDx=0;exitDy=0;" edge="1" source="985" target="982" parent="1"><mxGeometry relative="1" as="geometry"><mxPoint x="699.2861583737053" y="19787.765254461636" as="sourcePoint"/></mxGeometry></mxCell><mxCell id="978" style="edgeStyle=none;rounded=0;sketch=1;orthogonalLoop=1;jettySize=auto;html=1;entryX=1;entryY=0;entryDx=0;entryDy=0;strokeColor=#050505;fontColor=#050505;" edge="1" source="980" target="983" parent="1"><mxGeometry relative="1" as="geometry"/></mxCell><mxCell id="979" style="edgeStyle=none;rounded=0;sketch=1;orthogonalLoop=1;jettySize=auto;html=1;entryX=0;entryY=0;entryDx=0;entryDy=0;strokeColor=#050505;fontColor=#050505;" edge="1" source="980" target="984" parent="1"><mxGeometry relative="1" as="geometry"/></mxCell><mxCell id="980" value="&lt;font style=&quot;font-size: 17px&quot;&gt;61&lt;/font&gt;" style="ellipse;whiteSpace=wrap;html=1;aspect=fixed;fillColor=#dae8fc;strokeColor=#6c8ebf;sketch=1;fontStyle=1;fontColor=#050505;" vertex="1" parent="1"><mxGeometry x="509.5" y="19746" width="47" height="47" as="geometry"/></mxCell><mxCell id="981" value="&lt;span style=&quot;font-size: 17px&quot;&gt;27&lt;/span&gt;" style="ellipse;whiteSpace=wrap;html=1;aspect=fixed;fillColor=#dae8fc;strokeColor=#6c8ebf;sketch=1;fontColor=#000000;fontStyle=1" vertex="1" parent="1"><mxGeometry x="629" y="19824" width="47" height="47" as="geometry"/></mxCell><mxCell id="982" value="&lt;font style=&quot;font-size: 17px&quot;&gt;18&lt;/font&gt;" style="ellipse;whiteSpace=wrap;html=1;aspect=fixed;fillColor=#dae8fc;strokeColor=#6c8ebf;sketch=1;fontStyle=1;fontColor=#050505;" vertex="1" parent="1"><mxGeometry x="729.5" y="19826" width="47" height="47" as="geometry"/></mxCell><mxCell id="983" value="&lt;font style=&quot;font-size: 17px&quot;&gt;58&lt;/font&gt;" style="ellipse;whiteSpace=wrap;html=1;aspect=fixed;fillColor=#dae8fc;strokeColor=#6c8ebf;sketch=1;fontStyle=1;fontColor=#050505;" vertex="1" parent="1"><mxGeometry x="436" y="19824" width="47" height="47" as="geometry"/></mxCell><mxCell id="984" value="&lt;font style=&quot;font-size: 17px&quot;&gt;55&lt;/font&gt;" style="ellipse;whiteSpace=wrap;html=1;aspect=fixed;fillColor=#dae8fc;strokeColor=#6c8ebf;sketch=1;fontStyle=1;fontColor=#000000;" vertex="1" parent="1"><mxGeometry x="534.5" y="19824" width="47" height="47" as="geometry"/></mxCell><mxCell id="985" value="&lt;font style=&quot;font-size: 17px&quot;&gt;72&lt;/font&gt;" style="ellipse;whiteSpace=wrap;html=1;aspect=fixed;fillColor=#dae8fc;strokeColor=#6c8ebf;sketch=1;fontColor=#000000;fontStyle=1" vertex="1" parent="1"><mxGeometry x="659" y="19746" width="47" height="47" as="geometry"/></mxCell><mxCell id="986" value="&lt;font color=&quot;#000000&quot; style=&quot;font-size: 14px&quot;&gt;maximum value&lt;/font&gt;" style="text;html=1;align=center;verticalAlign=middle;resizable=0;points=[];autosize=1;rotation=0;" vertex="1" parent="1"><mxGeometry x="559.5" y="19646" width="106" height="19" as="geometry"/></mxCell><mxCell id="987" style="edgeStyle=none;rounded=0;sketch=1;orthogonalLoop=1;jettySize=auto;html=1;fontColor=#050505;entryX=0;entryY=0;entryDx=0;entryDy=0;strokeColor=#000000;" edge="1" source="989" target="999" parent="1"><mxGeometry relative="1" as="geometry"><mxPoint x="257.8829906421163" y="20013.882990642116" as="targetPoint"/></mxGeometry></mxCell><mxCell id="988" style="edgeStyle=none;rounded=0;sketch=1;orthogonalLoop=1;jettySize=auto;html=1;entryX=1;entryY=0;entryDx=0;entryDy=0;fontColor=#050505;strokeColor=#000000;" edge="1" source="989" target="994" parent="1"><mxGeometry relative="1" as="geometry"/></mxCell><mxCell id="989" value="&lt;font style=&quot;font-size: 17px&quot;&gt;99&lt;/font&gt;" style="ellipse;whiteSpace=wrap;html=1;aspect=fixed;fillColor=#e1d5e7;strokeColor=#9673a6;sketch=1;fontStyle=1;fontColor=#000000;" vertex="1" parent="1"><mxGeometry x="177" y="19929" width="47" height="47" as="geometry"/></mxCell><mxCell id="990" style="edgeStyle=none;rounded=0;sketch=1;orthogonalLoop=1;jettySize=auto;html=1;entryX=1;entryY=0;entryDx=0;entryDy=0;strokeColor=#050505;fontColor=#050505;exitX=0.5;exitY=1;exitDx=0;exitDy=0;" edge="1" source="999" target="995" parent="1"><mxGeometry relative="1" as="geometry"><mxPoint x="196.61700935788383" y="20093.882990642116" as="targetPoint"/><mxPoint x="268.88847915050405" y="20053.32018478795" as="sourcePoint"/></mxGeometry></mxCell><mxCell id="991" style="edgeStyle=none;rounded=0;sketch=1;orthogonalLoop=1;jettySize=auto;html=1;entryX=0;entryY=0;entryDx=0;entryDy=0;strokeColor=#050505;fontColor=#050505;exitX=1;exitY=1;exitDx=0;exitDy=0;" edge="1" source="999" target="996" parent="1"><mxGeometry relative="1" as="geometry"><mxPoint x="289.28615837370535" y="20048.765254461636" as="sourcePoint"/></mxGeometry></mxCell><mxCell id="992" style="edgeStyle=none;rounded=0;sketch=1;orthogonalLoop=1;jettySize=auto;html=1;entryX=1;entryY=0;entryDx=0;entryDy=0;strokeColor=#050505;fontColor=#050505;" edge="1" source="994" target="997" parent="1"><mxGeometry relative="1" as="geometry"/></mxCell><mxCell id="993" style="edgeStyle=none;rounded=0;sketch=1;orthogonalLoop=1;jettySize=auto;html=1;entryX=0;entryY=0;entryDx=0;entryDy=0;strokeColor=#050505;fontColor=#050505;" edge="1" source="994" target="998" parent="1"><mxGeometry relative="1" as="geometry"/></mxCell><mxCell id="994" value="&lt;font style=&quot;font-size: 17px&quot;&gt;72&lt;/font&gt;" style="ellipse;whiteSpace=wrap;html=1;aspect=fixed;fillColor=#dae8fc;strokeColor=#6c8ebf;sketch=1;fontStyle=1;fontColor=#050505;" vertex="1" parent="1"><mxGeometry x="99.5" y="20007" width="47" height="47" as="geometry"/></mxCell><mxCell id="995" value="&lt;span style=&quot;font-size: 17px&quot;&gt;27&lt;/span&gt;" style="ellipse;whiteSpace=wrap;html=1;aspect=fixed;fillColor=#dae8fc;strokeColor=#6c8ebf;sketch=1;fontColor=#000000;fontStyle=1" vertex="1" parent="1"><mxGeometry x="219" y="20085" width="47" height="47" as="geometry"/></mxCell><mxCell id="996" value="&lt;font style=&quot;font-size: 17px&quot;&gt;18&lt;/font&gt;" style="ellipse;whiteSpace=wrap;html=1;aspect=fixed;fillColor=#dae8fc;strokeColor=#6c8ebf;sketch=1;fontStyle=1;fontColor=#050505;" vertex="1" parent="1"><mxGeometry x="319.5" y="20087" width="47" height="47" as="geometry"/></mxCell><mxCell id="997" value="&lt;font style=&quot;font-size: 17px&quot;&gt;58&lt;/font&gt;" style="ellipse;whiteSpace=wrap;html=1;aspect=fixed;fillColor=#dae8fc;strokeColor=#6c8ebf;sketch=1;fontStyle=1;fontColor=#050505;" vertex="1" parent="1"><mxGeometry x="26" y="20085" width="47" height="47" as="geometry"/></mxCell><mxCell id="998" value="&lt;font style=&quot;font-size: 17px&quot;&gt;61&lt;/font&gt;" style="ellipse;whiteSpace=wrap;html=1;aspect=fixed;fillColor=#dae8fc;strokeColor=#6c8ebf;sketch=1;fontStyle=1;fontColor=#000000;" vertex="1" parent="1"><mxGeometry x="124.5" y="20085" width="47" height="47" as="geometry"/></mxCell><mxCell id="999" value="&lt;font style=&quot;font-size: 17px&quot;&gt;55&lt;/font&gt;" style="ellipse;whiteSpace=wrap;html=1;aspect=fixed;fillColor=#dae8fc;strokeColor=#6c8ebf;sketch=1;fontColor=#000000;fontStyle=1" vertex="1" parent="1"><mxGeometry x="249" y="20007" width="47" height="47" as="geometry"/></mxCell><mxCell id="1000" value="&lt;font color=&quot;#000000&quot; style=&quot;font-size: 14px&quot;&gt;maximum value&lt;/font&gt;" style="text;html=1;align=center;verticalAlign=middle;resizable=0;points=[];autosize=1;rotation=0;" vertex="1" parent="1"><mxGeometry x="149.5" y="19907" width="106" height="19" as="geometry"/></mxCell><mxCell id="1001" style="edgeStyle=none;rounded=0;sketch=1;orthogonalLoop=1;jettySize=auto;html=1;fontColor=#050505;entryX=0;entryY=0;entryDx=0;entryDy=0;strokeColor=#000000;" edge="1" source="1003" target="1013" parent="1"><mxGeometry relative="1" as="geometry"><mxPoint x="667.8829906421163" y="20011.882990642116" as="targetPoint"/></mxGeometry></mxCell><mxCell id="1002" style="edgeStyle=none;rounded=0;sketch=1;orthogonalLoop=1;jettySize=auto;html=1;entryX=1;entryY=0;entryDx=0;entryDy=0;fontColor=#050505;strokeColor=#000000;" edge="1" source="1003" target="1008" parent="1"><mxGeometry relative="1" as="geometry"/></mxCell><mxCell id="1003" value="&lt;font style=&quot;font-size: 17px&quot;&gt;99&lt;/font&gt;" style="ellipse;whiteSpace=wrap;html=1;aspect=fixed;fillColor=#e1d5e7;strokeColor=#9673a6;sketch=1;fontStyle=1;fontColor=#000000;" vertex="1" parent="1"><mxGeometry x="587" y="19927" width="47" height="47" as="geometry"/></mxCell><mxCell id="1004" style="edgeStyle=none;rounded=0;sketch=1;orthogonalLoop=1;jettySize=auto;html=1;entryX=1;entryY=0;entryDx=0;entryDy=0;strokeColor=#050505;fontColor=#050505;exitX=0.5;exitY=1;exitDx=0;exitDy=0;" edge="1" target="1009" parent="1"><mxGeometry relative="1" as="geometry"><mxPoint x="478.61700935788383" y="20173.762990642117" as="targetPoint"/><mxPoint x="554.5" y="20133.88" as="sourcePoint"/></mxGeometry></mxCell><mxCell id="1005" style="edgeStyle=none;rounded=0;sketch=1;orthogonalLoop=1;jettySize=auto;html=1;entryX=0;entryY=0;entryDx=0;entryDy=0;strokeColor=#050505;fontColor=#050505;exitX=1;exitY=1;exitDx=0;exitDy=0;" edge="1" target="1010" parent="1"><mxGeometry relative="1" as="geometry"><mxPoint x="571.1170093578812" y="20126.99700935788" as="sourcePoint"/></mxGeometry></mxCell><mxCell id="1006" style="edgeStyle=none;rounded=0;sketch=1;orthogonalLoop=1;jettySize=auto;html=1;entryX=1;entryY=0;entryDx=0;entryDy=0;strokeColor=#050505;fontColor=#050505;" edge="1" source="1008" target="1011" parent="1"><mxGeometry relative="1" as="geometry"/></mxCell><mxCell id="1007" style="edgeStyle=none;rounded=0;sketch=1;orthogonalLoop=1;jettySize=auto;html=1;entryX=0;entryY=0;entryDx=0;entryDy=0;strokeColor=#050505;fontColor=#050505;" edge="1" source="1008" target="1012" parent="1"><mxGeometry relative="1" as="geometry"/></mxCell><mxCell id="1008" value="&lt;span style=&quot;font-size: 17px&quot;&gt;61&lt;/span&gt;" style="ellipse;whiteSpace=wrap;html=1;aspect=fixed;fillColor=#dae8fc;strokeColor=#6c8ebf;sketch=1;fontStyle=1;fontColor=#050505;" vertex="1" parent="1"><mxGeometry x="509.5" y="20005" width="47" height="47" as="geometry"/></mxCell><mxCell id="1009" value="&lt;span style=&quot;font-size: 17px&quot;&gt;27&lt;/span&gt;" style="ellipse;whiteSpace=wrap;html=1;aspect=fixed;fillColor=#dae8fc;strokeColor=#6c8ebf;sketch=1;fontColor=#000000;fontStyle=1" vertex="1" parent="1"><mxGeometry x="501" y="20164.88" width="47" height="47" as="geometry"/></mxCell><mxCell id="1010" value="&lt;font style=&quot;font-size: 17px&quot;&gt;18&lt;/font&gt;" style="ellipse;whiteSpace=wrap;html=1;aspect=fixed;fillColor=#dae8fc;strokeColor=#6c8ebf;sketch=1;fontStyle=1;fontColor=#050505;" vertex="1" parent="1"><mxGeometry x="601.5" y="20166.88" width="47" height="47" as="geometry"/></mxCell><mxCell id="1011" value="&lt;font style=&quot;font-size: 17px&quot;&gt;58&lt;/font&gt;" style="ellipse;whiteSpace=wrap;html=1;aspect=fixed;fillColor=#dae8fc;strokeColor=#6c8ebf;sketch=1;fontStyle=1;fontColor=#050505;" vertex="1" parent="1"><mxGeometry x="436" y="20083" width="47" height="47" as="geometry"/></mxCell><mxCell id="1012" value="&lt;font style=&quot;font-size: 17px&quot;&gt;55&lt;br&gt;&lt;/font&gt;" style="ellipse;whiteSpace=wrap;html=1;aspect=fixed;fillColor=#dae8fc;strokeColor=#6c8ebf;sketch=1;fontStyle=1;fontColor=#000000;" vertex="1" parent="1"><mxGeometry x="534.5" y="20083" width="47" height="47" as="geometry"/></mxCell><mxCell id="1013" value="&lt;font style=&quot;font-size: 17px&quot;&gt;72&lt;/font&gt;" style="ellipse;whiteSpace=wrap;html=1;aspect=fixed;fillColor=#dae8fc;strokeColor=#6c8ebf;sketch=1;fontColor=#000000;fontStyle=1" vertex="1" parent="1"><mxGeometry x="659" y="20005" width="47" height="47" as="geometry"/></mxCell><mxCell id="1014" value="&lt;font color=&quot;#000000&quot; style=&quot;font-size: 14px&quot;&gt;maximum value&lt;/font&gt;" style="text;html=1;align=center;verticalAlign=middle;resizable=0;points=[];autosize=1;rotation=0;" vertex="1" parent="1"><mxGeometry x="559.5" y="19905" width="106" height="19" as="geometry"/></mxCell><mxCell id="1015" style="edgeStyle=elbowEdgeStyle;rounded=0;sketch=1;orthogonalLoop=1;jettySize=auto;html=1;fontColor=#050505;entryX=0;entryY=0;entryDx=0;entryDy=0;strokeColor=#000000;elbow=vertical;strokeWidth=3;" edge="1" parent="1" source="1017" target="1027"><mxGeometry relative="1" as="geometry"><mxPoint x="257.8829906421163" y="20358.882990642116" as="targetPoint"/></mxGeometry></mxCell><mxCell id="1016" style="edgeStyle=elbowEdgeStyle;rounded=0;sketch=1;orthogonalLoop=1;jettySize=auto;html=1;entryX=1;entryY=0;entryDx=0;entryDy=0;fontColor=#050505;strokeColor=#000000;elbow=vertical;strokeWidth=3;" edge="1" parent="1" source="1017" target="1022"><mxGeometry relative="1" as="geometry"/></mxCell><mxCell id="1017" value="&lt;font style=&quot;font-size: 17px&quot;&gt;99&lt;/font&gt;" style="ellipse;whiteSpace=wrap;html=1;aspect=fixed;fillColor=#dae8fc;strokeColor=#6c8ebf;sketch=1;fontStyle=1;fontColor=#000000;" vertex="1" parent="1"><mxGeometry x="56.75" y="20275" width="47" height="47" as="geometry"/></mxCell><mxCell id="1018" style="edgeStyle=elbowEdgeStyle;rounded=0;sketch=1;orthogonalLoop=1;jettySize=auto;html=1;entryX=0.5;entryY=0;entryDx=0;entryDy=0;strokeColor=#050505;fontColor=#050505;exitX=0.5;exitY=1;exitDx=0;exitDy=0;elbow=vertical;strokeWidth=3;" edge="1" parent="1" source="1027" target="1023"><mxGeometry relative="1" as="geometry"><mxPoint x="196.61700935788383" y="20438.882990642116" as="targetPoint"/><mxPoint x="268.88847915050405" y="20398.32018478795" as="sourcePoint"/><Array as="points"><mxPoint x="325" y="20413"/></Array></mxGeometry></mxCell><mxCell id="1019" style="edgeStyle=elbowEdgeStyle;rounded=0;sketch=1;orthogonalLoop=1;jettySize=auto;html=1;entryX=0.5;entryY=0;entryDx=0;entryDy=0;strokeColor=#050505;fontColor=#050505;exitX=1;exitY=1;exitDx=0;exitDy=0;elbow=vertical;strokeWidth=3;" edge="1" parent="1" source="1027" target="1024"><mxGeometry relative="1" as="geometry"><mxPoint x="289.28615837370535" y="20393.765254461636" as="sourcePoint"/><Array as="points"><mxPoint x="354" y="20413"/></Array></mxGeometry></mxCell><mxCell id="1020" style="edgeStyle=elbowEdgeStyle;rounded=0;sketch=1;orthogonalLoop=1;jettySize=auto;html=1;entryX=0.5;entryY=0;entryDx=0;entryDy=0;strokeColor=#050505;fontColor=#050505;elbow=vertical;strokeWidth=3;" edge="1" parent="1" source="1022" target="1025"><mxGeometry relative="1" as="geometry"/></mxCell><mxCell id="1021" style="edgeStyle=elbowEdgeStyle;rounded=0;sketch=1;orthogonalLoop=1;jettySize=auto;html=1;entryX=0;entryY=0;entryDx=0;entryDy=0;strokeColor=#050505;fontColor=#050505;elbow=vertical;strokeWidth=3;" edge="1" parent="1" source="1022" target="1026"><mxGeometry relative="1" as="geometry"><Array as="points"><mxPoint x="234" y="20424"/></Array></mxGeometry></mxCell><mxCell id="1022" value="&lt;font style=&quot;font-size: 17px&quot;&gt;72&lt;/font&gt;" style="ellipse;whiteSpace=wrap;html=1;aspect=fixed;fillColor=#dae8fc;strokeColor=#6c8ebf;sketch=1;fontStyle=1;fontColor=#050505;" vertex="1" parent="1"><mxGeometry x="116" y="20352" width="47" height="47" as="geometry"/></mxCell><mxCell id="1023" value="&lt;span style=&quot;font-size: 17px&quot;&gt;27&lt;/span&gt;" style="ellipse;whiteSpace=wrap;html=1;aspect=fixed;fillColor=#dae8fc;strokeColor=#6c8ebf;sketch=1;fontColor=#000000;fontStyle=1" vertex="1" parent="1"><mxGeometry x="386" y="20449" width="47" height="47" as="geometry"/></mxCell><mxCell id="1024" value="&lt;font style=&quot;font-size: 17px&quot;&gt;18&lt;/font&gt;" style="ellipse;whiteSpace=wrap;html=1;aspect=fixed;fillColor=#dae8fc;strokeColor=#6c8ebf;sketch=1;fontStyle=1;fontColor=#050505;" vertex="1" parent="1"><mxGeometry x="446" y="20449" width="47" height="47" as="geometry"/></mxCell><mxCell id="1025" value="&lt;font style=&quot;font-size: 17px&quot;&gt;58&lt;/font&gt;" style="ellipse;whiteSpace=wrap;html=1;aspect=fixed;fillColor=#dae8fc;strokeColor=#6c8ebf;sketch=1;fontStyle=1;fontColor=#050505;" vertex="1" parent="1"><mxGeometry x="266" y="20449" width="47" height="47" as="geometry"/></mxCell><mxCell id="1026" value="&lt;font style=&quot;font-size: 17px&quot;&gt;55&lt;/font&gt;" style="ellipse;whiteSpace=wrap;html=1;aspect=fixed;fillColor=#dae8fc;strokeColor=#6c8ebf;sketch=1;fontStyle=1;fontColor=#000000;" vertex="1" parent="1"><mxGeometry x="326" y="20449" width="47" height="47" as="geometry"/></mxCell><mxCell id="1027" value="&lt;font style=&quot;font-size: 17px&quot;&gt;61&lt;/font&gt;" style="ellipse;whiteSpace=wrap;html=1;aspect=fixed;fillColor=#dae8fc;strokeColor=#6c8ebf;sketch=1;fontColor=#000000;fontStyle=1" vertex="1" parent="1"><mxGeometry x="200" y="20352" width="47" height="47" as="geometry"/></mxCell><mxCell id="1029" style="edgeStyle=elbowEdgeStyle;rounded=0;sketch=1;orthogonalLoop=1;jettySize=auto;html=1;fontColor=#050505;entryX=0;entryY=0;entryDx=0;entryDy=0;strokeColor=#000000;elbow=vertical;strokeWidth=3;" edge="1" source="1031" target="1041" parent="1"><mxGeometry relative="1" as="geometry"><mxPoint x="247.88299064211628" y="20612.882990642116" as="targetPoint"/></mxGeometry></mxCell><mxCell id="1030" style="edgeStyle=elbowEdgeStyle;rounded=0;sketch=1;orthogonalLoop=1;jettySize=auto;html=1;entryX=1;entryY=0;entryDx=0;entryDy=0;fontColor=#050505;strokeColor=#000000;elbow=vertical;strokeWidth=3;" edge="1" source="1031" target="1036" parent="1"><mxGeometry relative="1" as="geometry"/></mxCell><mxCell id="1031" value="&lt;font style=&quot;font-size: 17px&quot;&gt;99&lt;/font&gt;" style="ellipse;whiteSpace=wrap;html=1;aspect=fixed;fillColor=#dae8fc;strokeColor=#6c8ebf;sketch=1;fontStyle=1;fontColor=#000000;" vertex="1" parent="1"><mxGeometry x="46.75" y="20529" width="47" height="47" as="geometry"/></mxCell><mxCell id="1032" style="edgeStyle=elbowEdgeStyle;rounded=0;sketch=1;orthogonalLoop=1;jettySize=auto;html=1;entryX=0.5;entryY=0;entryDx=0;entryDy=0;strokeColor=#050505;fontColor=#050505;exitX=0.5;exitY=1;exitDx=0;exitDy=0;elbow=vertical;strokeWidth=3;" edge="1" source="1041" target="1037" parent="1"><mxGeometry relative="1" as="geometry"><mxPoint x="186.61700935788383" y="20692.882990642116" as="targetPoint"/><mxPoint x="258.88847915050405" y="20652.32018478795" as="sourcePoint"/><Array as="points"><mxPoint x="315" y="20667"/></Array></mxGeometry></mxCell><mxCell id="1033" style="edgeStyle=elbowEdgeStyle;rounded=0;sketch=1;orthogonalLoop=1;jettySize=auto;html=1;entryX=0.5;entryY=0;entryDx=0;entryDy=0;strokeColor=#050505;fontColor=#050505;exitX=1;exitY=1;exitDx=0;exitDy=0;elbow=vertical;strokeWidth=3;" edge="1" source="1041" target="1038" parent="1"><mxGeometry relative="1" as="geometry"><mxPoint x="279.28615837370535" y="20647.765254461636" as="sourcePoint"/><Array as="points"><mxPoint x="344" y="20667"/></Array></mxGeometry></mxCell><mxCell id="1034" style="edgeStyle=elbowEdgeStyle;rounded=0;sketch=1;orthogonalLoop=1;jettySize=auto;html=1;entryX=0.5;entryY=0;entryDx=0;entryDy=0;strokeColor=#050505;fontColor=#050505;elbow=vertical;strokeWidth=3;" edge="1" source="1036" target="1039" parent="1"><mxGeometry relative="1" as="geometry"/></mxCell><mxCell id="1035" style="edgeStyle=elbowEdgeStyle;rounded=0;sketch=1;orthogonalLoop=1;jettySize=auto;html=1;entryX=0;entryY=0;entryDx=0;entryDy=0;strokeColor=#050505;fontColor=#050505;elbow=vertical;strokeWidth=3;" edge="1" source="1036" parent="1"><mxGeometry relative="1" as="geometry"><mxPoint x="322.8829906421115" y="20709.882990642112" as="targetPoint"/><Array as="points"><mxPoint x="224" y="20678"/></Array></mxGeometry></mxCell><mxCell id="1036" value="&lt;font style=&quot;font-size: 17px&quot;&gt;72&lt;/font&gt;" style="ellipse;whiteSpace=wrap;html=1;aspect=fixed;fillColor=#dae8fc;strokeColor=#6c8ebf;sketch=1;fontStyle=1;fontColor=#050505;" vertex="1" parent="1"><mxGeometry x="106" y="20606" width="47" height="47" as="geometry"/></mxCell><mxCell id="1037" value="&lt;span style=&quot;font-size: 17px&quot;&gt;27&lt;/span&gt;" style="ellipse;whiteSpace=wrap;html=1;aspect=fixed;fillColor=#dae8fc;strokeColor=#6c8ebf;sketch=1;fontColor=#000000;fontStyle=1" vertex="1" parent="1"><mxGeometry x="376" y="20703" width="47" height="47" as="geometry"/></mxCell><mxCell id="1038" value="&lt;font style=&quot;font-size: 17px&quot;&gt;18&lt;/font&gt;" style="ellipse;whiteSpace=wrap;html=1;aspect=fixed;fillColor=#dae8fc;strokeColor=#6c8ebf;sketch=1;fontStyle=1;fontColor=#050505;" vertex="1" parent="1"><mxGeometry x="436" y="20703" width="47" height="47" as="geometry"/></mxCell><mxCell id="1039" value="&lt;font style=&quot;font-size: 17px&quot;&gt;58&lt;/font&gt;" style="ellipse;whiteSpace=wrap;html=1;aspect=fixed;fillColor=#dae8fc;strokeColor=#6c8ebf;sketch=1;fontStyle=1;fontColor=#050505;" vertex="1" parent="1"><mxGeometry x="256" y="20703" width="47" height="47" as="geometry"/></mxCell><mxCell id="1041" value="&lt;font style=&quot;font-size: 17px&quot;&gt;61&lt;/font&gt;" style="ellipse;whiteSpace=wrap;html=1;aspect=fixed;fillColor=#dae8fc;strokeColor=#6c8ebf;sketch=1;fontColor=#000000;fontStyle=1" vertex="1" parent="1"><mxGeometry x="190" y="20606" width="47" height="47" as="geometry"/></mxCell><mxCell id="1042" style="edgeStyle=elbowEdgeStyle;rounded=0;sketch=1;orthogonalLoop=1;jettySize=auto;html=1;fontColor=#050505;entryX=0.5;entryY=0;entryDx=0;entryDy=0;strokeColor=#000000;elbow=vertical;strokeWidth=3;" edge="1" source="1044" target="1053" parent="1"><mxGeometry relative="1" as="geometry"><mxPoint x="240.63299064211628" y="20866.882990642116" as="targetPoint"/></mxGeometry></mxCell><mxCell id="1043" style="edgeStyle=elbowEdgeStyle;rounded=0;sketch=1;orthogonalLoop=1;jettySize=auto;html=1;entryX=0.5;entryY=0;entryDx=0;entryDy=0;fontColor=#050505;strokeColor=#000000;elbow=vertical;strokeWidth=3;" edge="1" source="1044" target="1049" parent="1"><mxGeometry relative="1" as="geometry"/></mxCell><mxCell id="1044" value="&lt;font style=&quot;font-size: 17px&quot;&gt;99&lt;/font&gt;" style="ellipse;whiteSpace=wrap;html=1;aspect=fixed;fillColor=#dae8fc;strokeColor=#6c8ebf;sketch=1;fontStyle=1;fontColor=#000000;" vertex="1" parent="1"><mxGeometry x="39.5" y="20767" width="47" height="47" as="geometry"/></mxCell><mxCell id="1045" style="edgeStyle=elbowEdgeStyle;rounded=0;sketch=1;orthogonalLoop=1;jettySize=auto;html=1;entryX=0.5;entryY=0;entryDx=0;entryDy=0;strokeColor=#050505;fontColor=#050505;exitX=0.5;exitY=1;exitDx=0;exitDy=0;elbow=vertical;strokeWidth=3;" edge="1" source="1053" target="1050" parent="1"><mxGeometry relative="1" as="geometry"><mxPoint x="179.36700935788383" y="20946.882990642116" as="targetPoint"/><mxPoint x="251.63847915050405" y="20906.32018478795" as="sourcePoint"/><Array as="points"><mxPoint x="307.75" y="20921"/></Array></mxGeometry></mxCell><mxCell id="1046" style="edgeStyle=elbowEdgeStyle;rounded=0;sketch=1;orthogonalLoop=1;jettySize=auto;html=1;entryX=0.5;entryY=0;entryDx=0;entryDy=0;strokeColor=#050505;fontColor=#050505;exitX=1;exitY=1;exitDx=0;exitDy=0;elbow=vertical;strokeWidth=3;" edge="1" source="1053" target="1051" parent="1"><mxGeometry relative="1" as="geometry"><mxPoint x="272.03615837370535" y="20901.765254461636" as="sourcePoint"/><Array as="points"><mxPoint x="336.75" y="20921"/></Array></mxGeometry></mxCell><mxCell id="1047" style="edgeStyle=elbowEdgeStyle;rounded=0;sketch=1;orthogonalLoop=1;jettySize=auto;html=1;entryX=0.5;entryY=0;entryDx=0;entryDy=0;strokeColor=#050505;fontColor=#050505;elbow=vertical;strokeWidth=3;" edge="1" source="1049" target="1052" parent="1"><mxGeometry relative="1" as="geometry"/></mxCell><mxCell id="1048" style="edgeStyle=elbowEdgeStyle;rounded=0;sketch=1;orthogonalLoop=1;jettySize=auto;html=1;entryX=0.5;entryY=0;entryDx=0;entryDy=0;strokeColor=#050505;fontColor=#050505;elbow=vertical;strokeWidth=3;" edge="1" source="1049" parent="1" target="1057"><mxGeometry relative="1" as="geometry"><mxPoint x="315.6329906421115" y="20963.882990642112" as="targetPoint"/><Array as="points"><mxPoint x="216.75" y="20932"/></Array></mxGeometry></mxCell><mxCell id="1049" value="&lt;font style=&quot;font-size: 17px&quot;&gt;72&lt;/font&gt;" style="ellipse;whiteSpace=wrap;html=1;aspect=fixed;fillColor=#ffe6cc;strokeColor=#d79b00;sketch=1;fontStyle=1;fontColor=#000000;" vertex="1" parent="1"><mxGeometry x="98.75" y="20860" width="47" height="47" as="geometry"/></mxCell><mxCell id="1050" value="&lt;span style=&quot;font-size: 17px&quot;&gt;27&lt;/span&gt;" style="ellipse;whiteSpace=wrap;html=1;aspect=fixed;fillColor=#dae8fc;strokeColor=#6c8ebf;sketch=1;fontColor=#000000;fontStyle=1" vertex="1" parent="1"><mxGeometry x="487" y="20959" width="47" height="47" as="geometry"/></mxCell><mxCell id="1051" value="&lt;font style=&quot;font-size: 17px&quot;&gt;18&lt;/font&gt;" style="ellipse;whiteSpace=wrap;html=1;aspect=fixed;fillColor=#dae8fc;strokeColor=#6c8ebf;sketch=1;fontStyle=1;fontColor=#050505;" vertex="1" parent="1"><mxGeometry x="610" y="20959" width="47" height="47" as="geometry"/></mxCell><mxCell id="1052" value="&lt;font style=&quot;font-size: 17px&quot;&gt;58&lt;/font&gt;" style="ellipse;whiteSpace=wrap;html=1;aspect=fixed;fillColor=#dae8fc;strokeColor=#6c8ebf;sketch=1;fontStyle=1;fontColor=#050505;" vertex="1" parent="1"><mxGeometry x="224" y="20959" width="47" height="47" as="geometry"/></mxCell><mxCell id="1053" value="&lt;font style=&quot;font-size: 17px&quot;&gt;61&lt;/font&gt;" style="ellipse;whiteSpace=wrap;html=1;aspect=fixed;fillColor=#dae8fc;strokeColor=#6c8ebf;sketch=1;fontColor=#000000;fontStyle=1" vertex="1" parent="1"><mxGeometry x="182.75" y="20860" width="47" height="47" as="geometry"/></mxCell><mxCell id="1054" value="index: 1" style="text;html=1;strokeColor=none;fillColor=none;align=center;verticalAlign=middle;whiteSpace=wrap;rounded=0;fontColor=#000000;fontSize=15;" vertex="1" parent="1"><mxGeometry x="88.75" y="20774" width="75.25" height="20" as="geometry"/></mxCell><mxCell id="1055" value="2 * parentIndex &lt;br&gt;2 * 1 = &lt;b&gt;2&lt;/b&gt;" style="text;html=1;strokeColor=none;fillColor=none;align=center;verticalAlign=middle;whiteSpace=wrap;rounded=0;fontColor=#000000;fontSize=15;" vertex="1" parent="1"><mxGeometry x="-43.88" y="20872" width="127.38" height="20" as="geometry"/></mxCell><mxCell id="1056" value="2 * parentIndex + 1 &lt;br&gt;2 * 1 + 1 =&amp;nbsp;&lt;b&gt;2&lt;/b&gt;" style="text;html=1;strokeColor=none;fillColor=none;align=center;verticalAlign=middle;whiteSpace=wrap;rounded=0;fontColor=#000000;fontSize=15;" vertex="1" parent="1"><mxGeometry x="229.75" y="20872" width="167.25" height="20" as="geometry"/></mxCell><mxCell id="1057" value="&lt;font style=&quot;font-size: 17px&quot;&gt;55&lt;/font&gt;" style="ellipse;whiteSpace=wrap;html=1;aspect=fixed;fillColor=#dae8fc;strokeColor=#6c8ebf;sketch=1;fontStyle=1;fontColor=#000000;" vertex="1" parent="1"><mxGeometry x="329" y="20957" width="47" height="47" as="geometry"/></mxCell><mxCell id="1060" value="2 * parentIndex&amp;nbsp; + 1&lt;br&gt;2 * 2 + 1 = &lt;b&gt;5&lt;/b&gt;" style="text;html=1;strokeColor=none;fillColor=none;align=center;verticalAlign=middle;whiteSpace=wrap;rounded=0;fontColor=#000000;fontSize=15;rotation=0;" vertex="1" parent="1"><mxGeometry x="266" y="21020" width="194.5" height="20" as="geometry"/></mxCell><mxCell id="1067" value="2 * parentIndex &lt;br&gt;2 * 2 = &lt;b&gt;4&lt;/b&gt;" style="text;html=1;strokeColor=none;fillColor=none;align=center;verticalAlign=middle;whiteSpace=wrap;rounded=0;fontColor=#000000;fontSize=15;" vertex="1" parent="1"><mxGeometry x="175.62" y="21017" width="127.38" height="20" as="geometry"/></mxCell><mxCell id="1072" value="2 * parentIndex &lt;br&gt;2 * 3 = &lt;b&gt;6&lt;/b&gt;" style="text;html=1;strokeColor=none;fillColor=none;align=center;verticalAlign=middle;whiteSpace=wrap;rounded=0;fontColor=#000000;fontSize=15;" vertex="1" parent="1"><mxGeometry x="454.12" y="21017" width="127.38" height="20" as="geometry"/></mxCell><mxCell id="1074" value="2 * parentIndex&amp;nbsp; + 1&lt;br&gt;2 * 3 + 1 = &lt;b&gt;7&lt;/b&gt;" style="text;html=1;strokeColor=none;fillColor=none;align=center;verticalAlign=middle;whiteSpace=wrap;rounded=0;fontColor=#000000;fontSize=15;rotation=0;" vertex="1" parent="1"><mxGeometry x="548" y="21017" width="194.5" height="20" as="geometry"/></mxCell><mxCell id="1075" style="edgeStyle=elbowEdgeStyle;rounded=0;sketch=1;orthogonalLoop=1;jettySize=auto;html=1;fontColor=#050505;entryX=0;entryY=0;entryDx=0;entryDy=0;strokeColor=#000000;elbow=vertical;strokeWidth=3;" edge="1" source="1077" target="1087" parent="1"><mxGeometry relative="1" as="geometry"><mxPoint x="240.63299064211628" y="21177.882990642116" as="targetPoint"/></mxGeometry></mxCell><mxCell id="1076" style="edgeStyle=elbowEdgeStyle;rounded=0;sketch=1;orthogonalLoop=1;jettySize=auto;html=1;entryX=1;entryY=0;entryDx=0;entryDy=0;fontColor=#050505;strokeColor=#000000;elbow=vertical;strokeWidth=3;" edge="1" source="1077" target="1082" parent="1"><mxGeometry relative="1" as="geometry"/></mxCell><mxCell id="1077" value="&lt;font style=&quot;font-size: 17px&quot;&gt;99&lt;/font&gt;" style="ellipse;whiteSpace=wrap;html=1;aspect=fixed;fillColor=#dae8fc;strokeColor=#6c8ebf;sketch=1;fontStyle=1;fontColor=#000000;" vertex="1" parent="1"><mxGeometry x="39.5" y="21094" width="47" height="47" as="geometry"/></mxCell><mxCell id="1078" style="edgeStyle=elbowEdgeStyle;rounded=0;sketch=1;orthogonalLoop=1;jettySize=auto;html=1;entryX=0.5;entryY=0;entryDx=0;entryDy=0;strokeColor=#050505;fontColor=#050505;exitX=0.5;exitY=1;exitDx=0;exitDy=0;elbow=vertical;strokeWidth=3;" edge="1" source="1087" target="1083" parent="1"><mxGeometry relative="1" as="geometry"><mxPoint x="179.36700935788383" y="21257.882990642116" as="targetPoint"/><mxPoint x="251.63847915050405" y="21217.32018478795" as="sourcePoint"/><Array as="points"><mxPoint x="307.75" y="21232"/></Array></mxGeometry></mxCell><mxCell id="1079" style="edgeStyle=elbowEdgeStyle;rounded=0;sketch=1;orthogonalLoop=1;jettySize=auto;html=1;entryX=0.5;entryY=0;entryDx=0;entryDy=0;strokeColor=#050505;fontColor=#050505;exitX=1;exitY=1;exitDx=0;exitDy=0;elbow=vertical;strokeWidth=3;" edge="1" source="1087" target="1084" parent="1"><mxGeometry relative="1" as="geometry"><mxPoint x="272.03615837370535" y="21212.765254461636" as="sourcePoint"/><Array as="points"><mxPoint x="336.75" y="21232"/></Array></mxGeometry></mxCell><mxCell id="1080" style="edgeStyle=elbowEdgeStyle;rounded=0;sketch=1;orthogonalLoop=1;jettySize=auto;html=1;entryX=0.5;entryY=0;entryDx=0;entryDy=0;strokeColor=#050505;fontColor=#050505;elbow=vertical;strokeWidth=3;" edge="1" source="1082" target="1085" parent="1"><mxGeometry relative="1" as="geometry"/></mxCell><mxCell id="1081" style="edgeStyle=elbowEdgeStyle;rounded=0;sketch=1;orthogonalLoop=1;jettySize=auto;html=1;entryX=0;entryY=0;entryDx=0;entryDy=0;strokeColor=#050505;fontColor=#050505;elbow=vertical;strokeWidth=3;" edge="1" source="1082" target="1086" parent="1"><mxGeometry relative="1" as="geometry"><Array as="points"><mxPoint x="216.75" y="21243"/></Array></mxGeometry></mxCell><mxCell id="1082" value="&lt;font style=&quot;font-size: 17px&quot;&gt;72&lt;/font&gt;" style="ellipse;whiteSpace=wrap;html=1;aspect=fixed;fillColor=#dae8fc;strokeColor=#6c8ebf;sketch=1;fontStyle=1;fontColor=#050505;" vertex="1" parent="1"><mxGeometry x="98.75" y="21171" width="47" height="47" as="geometry"/></mxCell><mxCell id="1083" value="&lt;span style=&quot;font-size: 17px&quot;&gt;27&lt;/span&gt;" style="ellipse;whiteSpace=wrap;html=1;aspect=fixed;fillColor=#ffe6cc;strokeColor=#d79b00;sketch=1;fontStyle=1;fontColor=#000000;" vertex="1" parent="1"><mxGeometry x="368.75" y="21268" width="47" height="47" as="geometry"/></mxCell><mxCell id="1084" value="&lt;font style=&quot;font-size: 17px&quot;&gt;18&lt;/font&gt;" style="ellipse;whiteSpace=wrap;html=1;aspect=fixed;fillColor=#ffe6cc;strokeColor=#d79b00;sketch=1;fontStyle=1;fontColor=#000000;" vertex="1" parent="1"><mxGeometry x="428.75" y="21268" width="47" height="47" as="geometry"/></mxCell><mxCell id="1085" value="&lt;font style=&quot;font-size: 17px&quot;&gt;58&lt;/font&gt;" style="ellipse;whiteSpace=wrap;html=1;aspect=fixed;fillColor=#dae8fc;strokeColor=#6c8ebf;sketch=1;fontStyle=1;fontColor=#050505;" vertex="1" parent="1"><mxGeometry x="248.75" y="21268" width="47" height="47" as="geometry"/></mxCell><mxCell id="1086" value="&lt;font style=&quot;font-size: 17px&quot;&gt;55&lt;/font&gt;" style="ellipse;whiteSpace=wrap;html=1;aspect=fixed;fillColor=#dae8fc;strokeColor=#6c8ebf;sketch=1;fontStyle=1;fontColor=#000000;" vertex="1" parent="1"><mxGeometry x="308.75" y="21268" width="47" height="47" as="geometry"/></mxCell><mxCell id="1087" value="&lt;font style=&quot;font-size: 17px&quot;&gt;61&lt;/font&gt;" style="ellipse;whiteSpace=wrap;html=1;aspect=fixed;fillColor=#dae8fc;strokeColor=#6c8ebf;sketch=1;fontColor=#000000;fontStyle=1" vertex="1" parent="1"><mxGeometry x="182.75" y="21171" width="47" height="47" as="geometry"/></mxCell></root></mxGraphModel></diagram></mxfile>